{
  "title": "Weiner 2016 720p WEB-DL x264 AAC-[eSc]",
  "uid": 15555037,
  "size": 884270358,
  "categoryP": "video",
  "categoryS": "hd___movies",
  "magnet": "?xt=urn:btih:b8ea26bbb6c69b6f010708e5a29184bfd1d64561&amp;dn=Weiner+2016+720p+WEB-DL+x264+AAC-%5BeSc%5D+&amp;tr=udp%3A%2F%2Ftracker.leechers-paradise.org%3A6969&amp;tr=udp%3A%2F%2Fzer0day.ch%3A1337&amp;tr=udp%3A%2F%2Fopen.demonii.com%3A1337&amp;tr=udp%3A%2F%2Ftracker.coppersurfer.tk%3A6969&amp;tr=udp%3A%2F%2Fexodus.desync.com%3A6969",
  "seeders": 112,
  "leechers": 14,
  "uploader": "makintos13",
  "files": 2,
  "time": 1471056451,
  "description": "Weiner 2016 720p WEB-DL x264 AAC-[eSc] \r\n\r\nscreens:\r\n \nhttps://imgmak.com/au9\r\n \nhttps://imgmak.com/auM\r\n \nhttps://imgmak.com/auO\r\n \nhttps://imgmak.com/auP\r\n \nhttps://imgmak.com/auY\r\n\r\nVideo\r\nID : 1\r\nFormat : AVC\r\nFormat/Info : Advanced Video Codec\r\nFormat profile :   \r\nFormat settings, CABAC : Yes\r\nFormat settings, ReFrames : 5 frames\r\nCodec ID : avc1\r\nCodec ID/Info : Advanced Video Coding\r\nDuration : 1h 35mn\r\nBit rate : 1 100 Kbps\r\nWidth : 1 280 pixels\r\nHeight : 720 pixels\r\nDisplay aspect ratio : 16:9\r\nFrame rate mode : Variable\r\nFrame rate : 23.976 fps\r\nMinimum frame rate : 11.989 fps\r\nMaximum frame rate : 23.981 fps\r\nColor space : YUV\r\nChroma subsampling : 4:2:0\r\nBit depth : 8 bits\r\nScan type : Progressive\r\nBits/(Pixel*Frame) : 0.050\r\nStream size : 754 MiB (89%)\r\nWriting library : x264 core 142 r2479 dd79a61\r\nEncoding settings : cabac=1 / ref=5 / deblock=1:-1:-1 / analyse=0x3:0x133 / me=umh / subme=9 / psy=1 / psy_rd=1.00:0.15 / mixed_ref=1 / me_range=16 / chroma_me=1 / trellis=2 / 8x8dct=1 / cqm=0 / deadzone=21,11 / fast_pskip=1 / chroma_qp_offset=-3 / threads=12 / lookahead_threads=1 / sliced_threads=0 / nr=0 / decimate=1 / interlaced=0 / bluray_compat=0 / constrained_intra=0 / bframes=3 / b_pyramid=2 / b_adapt=2 / b_bias=0 / direct=3 / weightb=1 / open_gop=0 / weightp=2 / keyint=240 / keyint_min=24 / scenecut=40 / intra_refresh=0 / rc_lookahead=60 / rc=2pass / mbtree=1 / bitrate=1100 / ratetol=1.0 / qcomp=0.60 / qpmin=0 / qpmax=69 / qpstep=4 / cplxblur=20.0 / qblur=0.5 / vbv_maxrate=17500 / vbv_bufsize=17500 / nal_hrd=none / filler=0 / ip_ratio=1.40 / aq=1:1.00\r\nLanguage : English\r\nEncoded date : UTC 2016-08-11 03:28:50\r\nTagged date : UTC 2016-08-11 03:28:50\r\nColor range : Limited\r\nColor primaries : BT.709\r\nTransfer characteristics : BT.709\r\nMatrix coefficients : BT.709\r\nMenus : 4\r\n\r\nAudio\r\nID : 2\r\nFormat : AAC\r\nFormat/Info : Advanced Audio Codec\r\nFormat profile : LC\r\nCodec ID : 40\r\nDuration : 1h 35mn\r\nBit rate mode : Variable\r\nBit rate : 122 Kbps\r\nChannel(s) : 2 channels\r\nChannel positions : Front: L R\r\nSampling rate : 48.0 KHz\r\nFrame rate : 46.875 fps (1024 spf)\r\nCompression mode : Lossy\r\nStream size : 84.0 MiB (10%)\r\nTitle : Stereo / Stereo\r\nLanguage : English\r\nDefault : Yes\r\nAlternate group : 1\r\nEncoded date : UTC 2016-08-11 03:28:50\r\nTagged date : UTC 2016-08-11 03:28:50\r\nMenus : 3\r\n\r\nMenu\r\nID : 4\r\nCodec ID : text\r\nDuration : 1h 35mn\r\nLanguage : English\r\nEncoded date : UTC 2016-08-11 04:19:18\r\nTagged date : UTC 2016-08-11 04:19:18\r\nBit rate mode : CBR\r\nMenu For : 1\r\n00:00:00.000 : 1\r\n00:11:55.381 : 2\r\n00:21:53.312 : 3\r\n00:30:14.312 : 4\r\n00:42:07.400 : 5\r\n00:54:19.298 : 6\r\n01:05:08.363 : 7\r\n01:15:18.347 : 8\r\n01:31:35.323 : 9",
  "parsed": {
    "xt": "urn:btih:b8ea26bbb6c69b6f010708e5a29184bfd1d64561",
    "dn": "Weiner 2016 720p WEB-DL x264 AAC-[eSc] ",
    "tr": [
      "udp://exodus.desync.com:6969",
      "udp://open.demonii.com:1337",
      "udp://tracker.coppersurfer.tk:6969",
      "udp://tracker.leechers-paradise.org:6969",
      "udp://zer0day.ch:1337"
    ],
    "infoHash": "b8ea26bbb6c69b6f010708e5a29184bfd1d64561",
    "infoHashBuffer": {
      "type": "Buffer",
      "data": [
        184,
        234,
        38,
        187,
        182,
        198,
        155,
        111,
        1,
        7,
        8,
        229,
        162,
        145,
        132,
        191,
        209,
        214,
        69,
        97
      ]
    },
    "name": "Weiner 2016 720p WEB-DL x264 AAC-[eSc] ",
    "announce": [
      "udp://exodus.desync.com:6969",
      "udp://open.demonii.com:1337",
      "udp://tracker.coppersurfer.tk:6969",
      "udp://tracker.leechers-paradise.org:6969",
      "udp://zer0day.ch:1337"
    ],
    "urlList": []
  },
  "previous": 317,
  "peers": 336,
  "last_updated": "2016-12-27T11:16:00.014Z"
}